<?xml version="1.0" encoding="utf-8"?>
<!-- Generator: Adobe Illustrator 16.0.0, SVG Export Plug-In . SVG Version: 6.00 Build 0)  -->
<!DOCTYPE svg PUBLIC "-//W3C//DTD SVG 1.1//EN" "http://www.w3.org/Graphics/SVG/1.1/DTD/svg11.dtd">
<svg version="1.1" id="Layer_1" xmlns="http://www.w3.org/2000/svg" xmlns:xlink="http://www.w3.org/1999/xlink" x="0px" y="0px"
	 width="100px" height="100px" viewBox="0 0 100 100" enable-background="new 0 0 100 100" xml:space="preserve">
<g id="Captions">
</g>
<g id="Layer_7" display="none">
</g>
<g id="Your_Icon" display="none">
	<path display="inline" d="M50.002,32.008c9.916,0,17.989,8.07,17.989,17.992c0,9.92-8.073,17.99-17.989,17.99
		c-9.921,0-17.995-8.07-17.995-17.99C32.007,40.078,40.081,32.008,50.002,32.008 M50.002,14.018
		C30.13,14.018,14.018,30.127,14.018,50S30.13,85.982,50.002,85.982c19.873,0,35.98-16.109,35.98-35.982
		S69.875,14.018,50.002,14.018L50.002,14.018z"/>
</g>
<g id="Layer_5" display="none">
	<path display="inline" d="M50.463,22.014c-19.869,0-35.984,11.045-35.984,24.674c0,6.475,3.667,12.341,9.612,16.748l-4.027,14.551
		l20.54-7.581c3.132,0.614,6.438,0.969,9.859,0.969c19.873,0,35.98-11.051,35.98-24.684C86.443,33.059,70.336,22.014,50.463,22.014z
		"/>
</g>
<g id="Layer_4" display="none">
	
		<rect x="15.209" y="32.137" transform="matrix(-0.7071 -0.7071 0.7071 -0.7071 47.1318 113.7829)" display="inline" width="63.843" height="29.986"/>
	<polygon display="inline" points="64.752,85.957 64.842,86.045 85.982,85.98 86.045,64.842 85.957,64.756 	"/>
</g>
<path fill="#034059" d="M50.001,23.626v-3.805H39.472l-3.741,3.271v24.994h-10.4l-0.001,3.832h10.4V76.69l3.742,3.487h10.527
	l0.002-3.502L39.563,76.69V23.656L50.001,23.626z"/>
</svg>
