<?xml version="1.0" encoding="utf-8"?>
<!-- Generator: Adobe Illustrator 16.0.0, SVG Export Plug-In . SVG Version: 6.00 Build 0)  -->
<!DOCTYPE svg PUBLIC "-//W3C//DTD SVG 1.1//EN" "http://www.w3.org/Graphics/SVG/1.1/DTD/svg11.dtd">
<svg version="1.1" id="Calque_1" xmlns="http://www.w3.org/2000/svg" xmlns:xlink="http://www.w3.org/1999/xlink" x="0px" y="0px"
	 width="100px" height="100px" viewBox="0 0 100 100" enable-background="new 0 0 100 100" xml:space="preserve">
<path fill="#034059" d="M35.1,37.171c0.327,0,0.653,0,0.979,0c17.823-0.392,15.097,21.523,9.304,31.586
	c-1.086,1.887-2.42,3.705-2.203,5.389c0.842,6.572,16.244,4.959,19.589,8.814c2.387,2.75,0.967,6.625,1.713,11.998
	c-19.181-0.164-39.014,0.326-57.787-0.244c0.762-5.272-0.637-9.045,1.714-11.754c3.679-4.24,19.014-2.07,19.589-9.061
	c0.13-1.576-1.098-3.223-2.204-5.143C19.652,58.086,17.641,36.752,35.1,37.171z"/>
<path fill="#034059" d="M95.857,31.39v-5.469l-6.537-2.725c-0.182-0.513-0.373-1.01-0.609-1.495l2.639-6.569l-3.867-3.867
	l-6.51,2.682c-0.498-0.24-1.006-0.444-1.525-0.63l-2.773-6.494h-5.469l-2.703,6.472c-0.543,0.193-1.066,0.396-1.586,0.643
	l-6.5-2.612l-3.865,3.867l2.648,6.44c-0.256,0.529-0.465,1.068-0.662,1.623l-6.43,2.75v5.469l6.436,2.682
	c0.197,0.558,0.41,1.095,0.666,1.624l-2.6,6.482l3.867,3.867l6.457-2.659c0.516,0.245,1.045,0.442,1.592,0.631l2.766,6.471h5.469
	l2.707-6.504c0.518-0.191,1.031-0.395,1.521-0.631l6.559,2.629l3.867-3.868l-2.691-6.525c0.229-0.492,0.416-0.989,0.598-1.496
	L95.857,31.39z M73.939,36.901c-4.529,0-8.203-3.674-8.203-8.203s3.674-8.203,8.203-8.203s8.203,3.674,8.203,8.203
	S78.469,36.901,73.939,36.901z"/>
</svg>
