<?xml version="1.0" encoding="utf-8"?>
<!-- Generator: Adobe Illustrator 16.0.0, SVG Export Plug-In . SVG Version: 6.00 Build 0)  -->
<!DOCTYPE svg PUBLIC "-//W3C//DTD SVG 1.1//EN" "http://www.w3.org/Graphics/SVG/1.1/DTD/svg11.dtd">
<svg version="1.1" id="Layer_1" xmlns="http://www.w3.org/2000/svg" xmlns:xlink="http://www.w3.org/1999/xlink" x="0px" y="0px"
	 width="118.25px" height="105px" viewBox="0 26.25 118.25 105" enable-background="new 0 26.25 118.25 105" xml:space="preserve">
<path fill="#034059" d="M103.958,69.109V63.64l-6.536-2.725c-0.182-0.513-0.374-1.01-0.609-1.495l2.639-6.569l-3.866-3.867
	l-6.51,2.682c-0.498-0.24-1.006-0.444-1.526-0.63l-2.772-6.494h-5.469l-2.704,6.472c-0.543,0.193-1.066,0.396-1.585,0.643
	l-6.5-2.612l-3.866,3.867l2.649,6.44c-0.257,0.529-0.466,1.068-0.663,1.623l-6.43,2.75v5.469l6.436,2.682
	c0.197,0.558,0.411,1.095,0.667,1.624l-2.6,6.482l3.867,3.867l6.456-2.659c0.517,0.245,1.046,0.442,1.592,0.631l2.766,6.472h5.469
	l2.707-6.505c0.519-0.191,1.031-0.395,1.522-0.631l6.56,2.629l3.865-3.867l-2.69-6.525c0.229-0.492,0.417-0.989,0.599-1.496
	L103.958,69.109z M82.041,74.62c-4.53,0-8.203-3.674-8.203-8.203s3.673-8.203,8.203-8.203c4.528,0,8.203,3.674,8.203,8.203
	S86.569,74.62,82.041,74.62z"/>
<path fill="#034059" d="M69.646,96.619v-6.845l-8.18-3.41c-0.227-0.643-0.468-1.264-0.762-1.871l3.302-8.221l-4.838-4.839
	l-8.146,3.356c-0.624-0.3-1.26-0.555-1.91-0.788l-3.468-8.127h-6.845l-3.384,8.1c-0.68,0.241-1.334,0.495-1.983,0.805l-8.134-3.269
	l-4.838,4.839l3.315,8.059c-0.321,0.662-0.583,1.336-0.829,2.031l-8.047,3.441v6.844l8.054,3.356
	c0.246,0.698,0.515,1.37,0.834,2.032l-3.253,8.112l4.839,4.84l8.079-3.329c0.646,0.309,1.309,0.554,1.992,0.79l3.461,8.1h6.843
	l3.388-8.141c0.65-0.238,1.291-0.495,1.905-0.789l8.208,3.29l4.837-4.84l-3.367-8.165c0.287-0.615,0.522-1.237,0.749-1.872
	L69.646,96.619z M42.219,103.516c-5.669,0-10.266-4.599-10.266-10.266c0-5.667,4.597-10.266,10.266-10.266
	c5.666,0,10.266,4.598,10.266,10.266C52.485,98.917,47.885,103.516,42.219,103.516z"/>
</svg>
