<?xml version="1.0" encoding="utf-8"?>
<!-- Generator: Adobe Illustrator 16.0.0, SVG Export Plug-In . SVG Version: 6.00 Build 0)  -->
<!DOCTYPE svg PUBLIC "-//W3C//DTD SVG 1.1//EN" "http://www.w3.org/Graphics/SVG/1.1/DTD/svg11.dtd">
<svg version="1.1" id="Layer_1" xmlns="http://www.w3.org/2000/svg" xmlns:xlink="http://www.w3.org/1999/xlink" x="0px" y="0px"
	 width="179.5px" height="179.5px" viewBox="0 0 179.5 179.5" enable-background="new 0 0 179.5 179.5" xml:space="preserve">
<path fill="#034059" d="M104.958,68.109v-5.469l-6.536-2.725c-0.182-0.513-0.374-1.01-0.609-1.495l2.638-6.569l-3.866-3.867
	l-6.51,2.682c-0.498-0.24-1.006-0.444-1.526-0.63l-2.772-6.494h-5.469l-2.704,6.472c-0.543,0.193-1.066,0.396-1.585,0.643
	l-6.5-2.612l-3.866,3.867l2.649,6.44c-0.257,0.529-0.466,1.068-0.663,1.623l-6.43,2.75v5.469l6.436,2.682
	c0.197,0.558,0.411,1.095,0.667,1.624l-2.6,6.482l3.867,3.867l6.456-2.659c0.517,0.245,1.046,0.442,1.592,0.631l2.766,6.472h5.469
	l2.707-6.505c0.519-0.191,1.031-0.395,1.522-0.631l6.559,2.629l3.866-3.867l-2.691-6.525c0.229-0.492,0.417-0.989,0.599-1.496
	L104.958,68.109z M83.041,73.62c-4.53,0-8.203-3.674-8.203-8.203s3.673-8.203,8.203-8.203c4.528,0,8.203,3.674,8.203,8.203
	S87.569,73.62,83.041,73.62z"/>
<path fill="#034059" d="M41.802,62.5L14,88.965V161.5h73v-70h-7v63H21v-61h25v-24h11v-7H41.802z M26.787,86.5L39,73.949V86.5H26.787
	z"/>
</svg>
