<?xml version="1.0" encoding="utf-8"?>
<!-- Generator: Adobe Illustrator 16.0.0, SVG Export Plug-In . SVG Version: 6.00 Build 0)  -->
<!DOCTYPE svg PUBLIC "-//W3C//DTD SVG 1.1//EN" "http://www.w3.org/Graphics/SVG/1.1/DTD/svg11.dtd">
<svg version="1.1" id="Your_Icon" xmlns="http://www.w3.org/2000/svg" xmlns:xlink="http://www.w3.org/1999/xlink" x="0px" y="0px"
	 width="100px" height="100px" viewBox="0 0 100 100" enable-background="new 0 0 100 100" xml:space="preserve">
<path fill="#034059" d="M0,0v100h100V0H0z M26.524,93.33H6.76V73.574h19.764V93.33z M26.524,71.166H6.76V51.408h19.764V71.166z
	 M26.524,48.997H6.76V29.244h19.764V48.997z M48.762,93.33H28.997V73.574h19.765V93.33z M48.762,71.166H28.997V51.408h19.765V71.166
	z M48.762,48.997H28.997V29.244h19.765V48.997z M70.996,93.33H51.238V73.574h19.758V93.33z M70.996,71.166H51.238V51.408h19.758
	V71.166z M70.996,48.997H51.238V29.244h19.758V48.997z M93.236,93.33H73.473V73.574h19.764V93.33L93.236,93.33z M93.236,71.166
	H73.473V51.408h19.764V71.166L93.236,71.166z M93.236,48.997H73.473V29.244h19.764V48.997L93.236,48.997z"/>
</svg>
