<?xml version="1.0" encoding="utf-8"?>
<!-- Generator: Adobe Illustrator 16.0.0, SVG Export Plug-In . SVG Version: 6.00 Build 0)  -->
<!DOCTYPE svg PUBLIC "-//W3C//DTD SVG 1.1//EN" "http://www.w3.org/Graphics/SVG/1.1/DTD/svg11.dtd">
<svg version="1.1" id="Calque_1" xmlns="http://www.w3.org/2000/svg" xmlns:xlink="http://www.w3.org/1999/xlink" x="0px" y="0px"
	 width="100px" height="100px" viewBox="0 0 100 100" enable-background="new 0 0 100 100" xml:space="preserve">
<path fill="#034059" d="M59.123,10.089c0.326,0,0.652,0,0.979,0c17.823-0.392,15.097,21.522,9.304,31.586
	c-1.086,1.888-2.42,3.705-2.202,5.39c0.842,6.572,16.243,4.959,19.589,8.813c2.387,2.75,0.967,6.625,1.713,11.998
	c-19.182-0.164-39.015,0.326-57.788-0.244c0.762-5.272-0.637-9.045,1.714-11.754c3.679-4.239,19.014-2.069,19.589-9.062
	c0.13-1.576-1.099-3.223-2.204-5.143C43.674,31.004,41.664,9.67,59.123,10.089z"/>
<polygon fill="#FFFFFF" points="23.638,46.5 50.861,67.917 23.638,87 "/>
<polygon fill="#034059" points="16.25,46.5 43.474,67.917 16.25,87 "/>
</svg>
