<?xml version="1.0" encoding="utf-8"?>
<!-- Generator: Adobe Illustrator 16.0.0, SVG Export Plug-In . SVG Version: 6.00 Build 0)  -->
<!DOCTYPE svg PUBLIC "-//W3C//DTD SVG 1.1//EN" "http://www.w3.org/Graphics/SVG/1.1/DTD/svg11.dtd">
<svg version="1.1" id="Calque_1" xmlns="http://www.w3.org/2000/svg" xmlns:xlink="http://www.w3.org/1999/xlink" x="0px" y="0px"
	 width="122.5px" height="111.5px" viewBox="0 -11.5 122.5 111.5" enable-background="new 0 -11.5 122.5 111.5"
	 xml:space="preserve">
<path fill="#034059" d="M31.458,37.171c0.327,0,0.653,0,0.979,0c17.823-0.392,15.097,21.523,9.304,31.586
	c-1.086,1.887-2.42,3.705-2.203,5.389c0.842,6.572,16.244,4.959,19.589,8.814c2.387,2.75,0.967,6.528,1.713,11.901H3.104
	c0.762-5.272-0.688-9.192,1.663-11.901c3.679-4.24,19.014-2.07,19.589-9.061c0.13-1.576-1.098-3.223-2.204-5.143
	C16.009,58.086,13.999,36.752,31.458,37.171z"/>
<path fill="#FCFCFC" d="M31.5,42c0.287,0,0.713,0,1,0c15.663-0.345,9.833,20.166,4.625,27.875c-0.954,1.658-1.065,4.896-0.875,6.375
	c1.25,7.063,16.935,5.424,19.875,8.813c2.375,2.875,0.875,3.25,1.33,6.748L6.863,91.75c0.67-4.634-0.34-4.577,1.022-6.351
	c3.233-3.727,18.781-0.566,19.555-10.447c0.114-1.386,0.748-5.077-1.937-8.52C20.104,57.055,18.32,42,31.5,42z"/>
<rect x="42.75" y="77.25" fill="#FFFFFF" width="19.75" height="10.25"/>
<g>
	<g>
		<g>
			<path fill="#034059" d="M100.482,40.924l-8.403-8.403c-1.115-1.107-3.079-1.107-4.185,0l-7.607,7.607L50.903,69.503
				c-0.263,0.272-0.475,0.584-0.625,0.93l-6.29,14.692c-0.474,1.113-0.229,2.401,0.626,3.254c0.566,0.564,1.327,0.871,2.097,0.871
				c0.388,0,0.786-0.079,1.167-0.239l14.691-6.297c0.346-0.144,0.659-0.355,0.92-0.626l29.383-29.374l7.607-7.608
				c0.551-0.558,0.863-1.31,0.863-2.088C101.344,42.233,101.03,41.481,100.482,40.924z M61.26,78.274l-12.788,6.258l5.474-12.789
				L80.16,45.538l7.304,6.531L61.26,78.274z M91.231,49.86l-8.089-7.314 M83.126,42.538l0.017,0.008l5.657-5.827l7.722,7.85
				l-5.29,5.291l0.007,0.01"/>
			<path fill="#034059" d="M83.143,42.545l-0.22,0.22c0.076-0.076,0.137-0.153,0.203-0.228L83.143,42.545z"/>
			<path fill="#034059" d="M91.238,49.868c-0.077,0.066-0.151,0.135-0.228,0.211l0.221-0.22L91.238,49.868z"/>
		</g>
		<g>
			<path fill="#034059" d="M83.143,42.545l-0.22,0.22c0.076-0.076,0.137-0.153,0.203-0.228L83.143,42.545z"/>
			<path fill="#034059" d="M91.238,49.868c-0.077,0.066-0.151,0.135-0.228,0.211l0.221-0.22L91.238,49.868z"/>
		</g>
	</g>
</g>
</svg>
