<?xml version="1.0" encoding="utf-8"?>
<!-- Generator: Adobe Illustrator 16.0.0, SVG Export Plug-In . SVG Version: 6.00 Build 0)  -->
<!DOCTYPE svg PUBLIC "-//W3C//DTD SVG 1.1//EN" "http://www.w3.org/Graphics/SVG/1.1/DTD/svg11.dtd">
<svg version="1.1" id="Livello_1" xmlns="http://www.w3.org/2000/svg" xmlns:xlink="http://www.w3.org/1999/xlink" x="0px" y="0px"
	 width="130px" height="100px" viewBox="0 0 130 100" enable-background="new 0 0 130 100" xml:space="preserve">
<path fill="#034059" d="M65.002,19.361C53.16,19.363,43.53,28.669,42.94,40.365c0,0.018,0,0.863,0,2.092h7.753
	c0.018-0.68,0.025-1.366,0.043-2.074c0.176-7.034,6.723-13.216,14.266-13.23c5.326,0.011,10.112,3.119,12.547,7.414h8.393
	C83.045,25.746,74.797,19.363,65.002,19.361L65.002,19.361z"/>
<path fill="#034059" d="M90.17,46.462c-0.156-0.16-0.365-0.257-0.59-0.257H40.425c-0.223,0-0.436,0.097-0.596,0.257
	c-0.152,0.153-0.24,0.376-0.24,0.601v32.721c0,0.229,0.091,0.445,0.246,0.607c0.154,0.154,0.367,0.248,0.59,0.248H89.58
	c0.215,0,0.435-0.094,0.59-0.248c0.154-0.162,0.24-0.38,0.24-0.607V47.063C90.41,46.838,90.325,46.615,90.17,46.462z M58.172,73.843
	l3.974-12.25c-1.19-0.875-1.958-2.278-1.958-3.86c0-2.664,2.162-4.813,4.814-4.813c2.653,0,4.811,2.149,4.811,4.813
	c0,1.582-0.771,2.985-1.951,3.86l3.973,12.25H58.172z"/>
</svg>
