<?xml version="1.0" encoding="utf-8"?>
<!-- Generator: Adobe Illustrator 16.0.0, SVG Export Plug-In . SVG Version: 6.00 Build 0)  -->
<!DOCTYPE svg PUBLIC "-//W3C//DTD SVG 1.1//EN" "http://www.w3.org/Graphics/SVG/1.1/DTD/svg11.dtd">
<svg version="1.1" id="Calque_1" xmlns="http://www.w3.org/2000/svg" xmlns:xlink="http://www.w3.org/1999/xlink" x="0px" y="0px"
	 width="100px" height="100px" viewBox="0 0 100 100" enable-background="new 0 0 100 100" xml:space="preserve">
<path fill="#034059" d="M34.857,16.158c0.325,0,0.646,0,0.97,0c17.655-0.388,14.956,21.321,9.215,31.29
	c-1.074,1.87-2.396,3.669-2.182,5.337c0.833,6.511,16.092,4.914,19.404,8.733c2.365,2.722,0.958,6.563,1.697,11.884
	c-19-0.162-38.646,0.323-57.241-0.241c0.753-5.223-0.63-8.959,1.699-11.643c3.644-4.199,18.834-2.051,19.404-8.976
	c0.128-1.563-1.089-3.191-2.185-5.095C19.555,36.876,17.563,15.742,34.857,16.158z"/>
<rect x="42.5" y="66.347" fill="#FFFFFF" width="24.347" height="13.5"/>
<polygon fill="#034059" points="75.06,58.674 89.472,73.106 75.06,87.538 65.527,87.538 76.5,76.566 46.222,76.566 46.222,69.571 
	76.422,69.571 65.507,58.653 "/>
</svg>
