<?xml version="1.0" encoding="utf-8"?>
<!-- Generator: Adobe Illustrator 16.0.0, SVG Export Plug-In . SVG Version: 6.00 Build 0)  -->
<!DOCTYPE svg PUBLIC "-//W3C//DTD SVG 1.1//EN" "http://www.w3.org/Graphics/SVG/1.1/DTD/svg11.dtd">
<svg version="1.1" id="Livello_1" xmlns="http://www.w3.org/2000/svg" xmlns:xlink="http://www.w3.org/1999/xlink" x="0px" y="0px"
	 width="185.5px" height="175.5px" viewBox="0 0 185.5 175.5" enable-background="new 0 0 185.5 175.5" xml:space="preserve">
<g>
	<polygon fill="none" points="94.75,139.334 43.333,139.334 43.333,143.834 102.333,143.834 102.333,58.834 94.75,58.834 	"/>
	<polygon fill="#034059" points="102.333,51.834 102.333,58.834 102.333,143.834 43.333,143.834 43.333,139.334 36.333,139.334 
		36.333,150.834 109.333,150.834 109.333,51.834 	"/>
	<rect x="94.75" y="51.834" fill="#034059" width="7.583" height="7"/>
	<polygon fill="#FFFFFF" points="61.333,63.283 49.12,75.834 61.333,75.834 	"/>
</g>
<path fill="#034059" d="M44.468,35.167L16.666,61.631v72.535h73v-99h-7v92h-59v-61h25v-24h34v-7L44.468,35.167L44.468,35.167z
	 M29.453,59.166l12.213-12.55v12.55H29.453z"/>
</svg>
