<?xml version="1.0" encoding="utf-8"?>
<!-- Generator: Adobe Illustrator 16.0.0, SVG Export Plug-In . SVG Version: 6.00 Build 0)  -->
<!DOCTYPE svg PUBLIC "-//W3C//DTD SVG 1.1//EN" "http://www.w3.org/Graphics/SVG/1.1/DTD/svg11.dtd">
<svg version="1.1" id="Livello_1" xmlns="http://www.w3.org/2000/svg" xmlns:xlink="http://www.w3.org/1999/xlink" x="0px" y="0px"
	 width="185.5px" height="175.5px" viewBox="0 0 185.5 175.5" enable-background="new 0 0 185.5 175.5" xml:space="preserve">
<path fill="#034059" d="M44.468,35.167L16.666,61.631v72.535h73v-99h-7v92h-59v-61h25v-24h34v-7L44.468,35.167L44.468,35.167z
	 M29.453,59.166l12.213-12.55v12.55H29.453z"/>
<rect x="50.153" y="87.75" fill="#034059" width="71" height="34.5"/>
<rect x="55.653" y="93.529" fill="#FFFFFF" width="60" height="22.941"/>
<g>
	<path fill="#034059" d="M62.818,113.8l5.911-9.025l-5.356-8.271h4.082l3.469,5.557l3.398-5.557h4.047l-5.38,8.4l5.911,8.896h-4.212
		l-3.834-5.981l-3.846,5.981H62.818z"/>
	<path fill="#034059" d="M80.787,113.8V96.646h3.492v14.24h8.684v2.914H80.787z"/>
	<path fill="#034059" d="M94.566,108.172l3.397-0.33c0.205,1.141,0.62,1.979,1.245,2.513c0.625,0.535,1.469,0.803,2.531,0.803
		c1.124,0,1.972-0.238,2.542-0.714s0.855-1.032,0.855-1.67c0-0.408-0.12-0.757-0.36-1.044c-0.239-0.287-0.658-0.537-1.256-0.749
		c-0.409-0.142-1.342-0.394-2.796-0.755c-1.872-0.464-3.186-1.034-3.941-1.711c-1.062-0.951-1.593-2.112-1.593-3.48
		c0-0.881,0.25-1.705,0.75-2.472c0.499-0.767,1.219-1.351,2.158-1.752c0.94-0.401,2.075-0.602,3.404-0.602
		c2.171,0,3.805,0.476,4.902,1.427c1.097,0.952,1.673,2.223,1.729,3.812l-3.492,0.153c-0.15-0.889-0.471-1.528-0.962-1.917
		c-0.492-0.39-1.229-0.584-2.212-0.584c-1.015,0-1.81,0.208-2.384,0.625c-0.369,0.268-0.555,0.625-0.555,1.073
		c0,0.409,0.173,0.76,0.52,1.051c0.44,0.369,1.51,0.755,3.209,1.156c1.699,0.4,2.955,0.815,3.77,1.244s1.451,1.015,1.911,1.758
		s0.69,1.662,0.69,2.755c0,0.991-0.275,1.92-0.826,2.784c-0.551,0.866-1.329,1.509-2.336,1.93s-2.261,0.631-3.764,0.631
		c-2.187,0-3.865-0.505-5.037-1.516C95.494,111.58,94.795,110.107,94.566,108.172z"/>
</g>
</svg>
