<?xml version="1.0" encoding="utf-8"?>
<!-- Generator: Adobe Illustrator 16.0.0, SVG Export Plug-In . SVG Version: 6.00 Build 0)  -->
<!DOCTYPE svg PUBLIC "-//W3C//DTD SVG 1.1//EN" "http://www.w3.org/Graphics/SVG/1.1/DTD/svg11.dtd">
<svg version="1.1" id="Livello_1" xmlns="http://www.w3.org/2000/svg" xmlns:xlink="http://www.w3.org/1999/xlink" x="0px" y="0px"
	 width="100px" height="100px" viewBox="0 0 100 100" enable-background="new 0 0 100 100" xml:space="preserve">
<path fill="#034059" d="M39.802,0L12,26.465V99h33v-7H19V31h25V7h36v29h7V0H39.802z M24.787,24L37,11.449V24H24.787z"/>
<g>
	<path fill="#034059" d="M70.773,58.546l-0.021,37.373l7.03,2.327c0,0.501,0,0.988,0,0.988c-0.252,0-20.063,0-20.377,0l0.01-0.988
		l5.955-2.327L63.248,62.52l-5.691-2.28c0-0.283,0.019-1.646,0.019-1.646L70.773,58.546z M65.553,35.543
		c1.191,0,2.258,0.439,3.199,1.317c0.941,0.878,1.411,1.834,1.411,2.87c0,1.223-0.385,2.274-1.152,3.151
		c-0.769,0.879-1.827,1.318-3.176,1.318c-1.191,0-2.257-0.384-3.198-1.154c-0.941-0.767-1.411-1.811-1.411-3.127
		c0-1.285,0.399-2.335,1.199-3.151C63.225,35.951,64.267,35.543,65.553,35.543z"/>
</g>
</svg>
