<?xml version="1.0" encoding="utf-8"?>
<!-- Generator: Adobe Illustrator 16.0.0, SVG Export Plug-In . SVG Version: 6.00 Build 0)  -->
<!DOCTYPE svg PUBLIC "-//W3C//DTD SVG 1.1//EN" "http://www.w3.org/Graphics/SVG/1.1/DTD/svg11.dtd">
<svg version="1.1" id="Livello_1" xmlns="http://www.w3.org/2000/svg" xmlns:xlink="http://www.w3.org/1999/xlink" x="0px" y="0px"
	 width="130px" height="100px" viewBox="0 0 130 100" enable-background="new 0 0 130 100" xml:space="preserve">
<polygon fill="#034059" points="93.464,41.381 110,57.941 93.464,74.5 82.527,74.5 95.117,61.91 60.378,61.91 60.378,53.885 
	95.027,53.885 82.504,41.359 "/>
<path fill="#034059" d="M42.44,0L14.639,26.465V99h33v-7h-26V31h25V7h36v28h7V0H42.44z M27.426,24l12.213-12.551V24H27.426z"/>
<polygon fill="#034059" points="64.537,99.111 54.871,89.432 64.537,79.753 70.93,79.753 63.57,87.111 84.032,87.111 84.032,91.803 
	63.623,91.803 70.943,99.125 "/>
</svg>
