<?xml version="1.0" encoding="utf-8"?>
<!-- Generator: Adobe Illustrator 16.0.0, SVG Export Plug-In . SVG Version: 6.00 Build 0)  -->
<!DOCTYPE svg PUBLIC "-//W3C//DTD SVG 1.1//EN" "http://www.w3.org/Graphics/SVG/1.1/DTD/svg11.dtd">
<svg version="1.1" id="Livello_1" xmlns="http://www.w3.org/2000/svg" xmlns:xlink="http://www.w3.org/1999/xlink" x="0px" y="0px"
	 width="185.5px" height="175.5px" viewBox="0 0 185.5 175.5" enable-background="new 0 0 185.5 175.5" xml:space="preserve">
<path fill="#034059" d="M39.802,66.5L12,92.965V165.5h73v-47h-7v40H19v-61h25v-24h34v-7H39.802z M24.787,90.5L37,77.949V90.5H24.787
	z"/>
<g>
	<g>
		<g>
			<path fill="#034059" d="M128.844,56.808L117.986,45.95c-1.441-1.431-3.978-1.431-5.406,0l-9.83,9.83L64.785,93.734
				c-0.34,0.352-0.613,0.754-0.809,1.201l-8.126,18.983c-0.612,1.44-0.295,3.103,0.808,4.205c0.732,0.729,1.715,1.125,2.709,1.125
				c0.502,0,1.016-0.101,1.508-0.308l18.982-8.137c0.448-0.186,0.852-0.459,1.189-0.809l37.966-37.953l9.829-9.83
				c0.711-0.721,1.115-1.693,1.115-2.698C129.957,58.5,129.553,57.528,128.844,56.808z M78.166,105.066l-16.524,8.086l7.073-16.523
				l33.871-33.859l9.438,8.439L78.166,105.066z M116.891,68.354l-10.451-9.45 M106.418,58.893l0.021,0.011l7.311-7.529l9.977,10.143
				l-6.836,6.837l0.01,0.011"/>
			<path fill="#034059" d="M106.439,58.903l-0.283,0.284c0.098-0.098,0.176-0.197,0.262-0.295L106.439,58.903z"/>
			<path fill="#034059" d="M116.9,68.364c-0.099,0.087-0.195,0.175-0.295,0.273l0.285-0.284L116.9,68.364z"/>
		</g>
		<g>
			<path fill="#034059" d="M106.439,58.903l-0.283,0.284c0.098-0.098,0.176-0.197,0.262-0.295L106.439,58.903z"/>
			<path fill="#034059" d="M116.9,68.364c-0.099,0.087-0.195,0.175-0.295,0.273l0.285-0.284L116.9,68.364z"/>
		</g>
	</g>
</g>
</svg>
