<?xml version="1.0" encoding="utf-8"?>
<!-- Generator: Adobe Illustrator 16.0.0, SVG Export Plug-In . SVG Version: 6.00 Build 0)  -->
<!DOCTYPE svg PUBLIC "-//W3C//DTD SVG 1.1//EN" "http://www.w3.org/Graphics/SVG/1.1/DTD/svg11.dtd">
<svg version="1.1" id="Livello_1" xmlns="http://www.w3.org/2000/svg" xmlns:xlink="http://www.w3.org/1999/xlink" x="0px" y="0px"
	 width="185.5px" height="175.5px" viewBox="0 0 185.5 175.5" enable-background="new 0 0 185.5 175.5" xml:space="preserve">
<path fill="#034059" d="M44.468,35.167L16.666,61.631v72.535h73v-99h-7v92h-59v-61h25v-24h34v-7L44.468,35.167L44.468,35.167z
	 M29.453,59.166l12.213-12.55v12.55H29.453z"/>
<rect x="51.02" y="50.166" fill="#034059" width="71" height="34.5"/>
<rect x="56.52" y="55.945" fill="#FFFFFF" width="60" height="22.941"/>
<g>
	<path fill="#034059" d="M64.819,75.994V59.242h5.428c2.057,0,3.397,0.084,4.022,0.251c0.96,0.251,1.763,0.798,2.411,1.64
		c0.647,0.842,0.971,1.929,0.971,3.263c0,1.028-0.187,1.893-0.56,2.594c-0.373,0.701-0.848,1.251-1.422,1.651
		c-0.576,0.4-1.16,0.665-1.754,0.794c-0.808,0.16-1.977,0.24-3.508,0.24h-2.206v6.319H64.819z M68.201,62.076v4.754h1.852
		c1.333,0,2.224-0.088,2.674-0.263c0.45-0.175,0.802-0.449,1.057-0.823c0.255-0.373,0.383-0.807,0.383-1.303
		c0-0.609-0.179-1.112-0.537-1.508s-0.812-0.644-1.36-0.743c-0.404-0.076-1.215-0.114-2.434-0.114H68.201z"/>
	<path fill="#034059" d="M80.417,59.242H86.6c1.394,0,2.457,0.106,3.188,0.32c0.983,0.29,1.824,0.804,2.525,1.542
		c0.701,0.739,1.235,1.644,1.601,2.714c0.365,1.07,0.548,2.39,0.548,3.959c0,1.379-0.171,2.567-0.514,3.565
		c-0.42,1.219-1.018,2.206-1.795,2.959c-0.586,0.571-1.378,1.017-2.376,1.337c-0.747,0.236-1.745,0.354-2.994,0.354h-6.365V59.242z
		 M83.8,62.076v11.096h2.525c0.945,0,1.626-0.053,2.045-0.16c0.549-0.137,1.004-0.37,1.366-0.697s0.657-0.866,0.886-1.617
		s0.343-1.773,0.343-3.068s-0.114-2.29-0.343-2.982c-0.229-0.693-0.549-1.234-0.96-1.623c-0.412-0.388-0.933-0.651-1.565-0.789
		c-0.473-0.106-1.398-0.16-2.777-0.16H83.8z"/>
	<path fill="#034059" d="M97.354,75.994V59.242h11.484v2.834h-8.102v3.965h6.993v2.834h-6.993v7.119H97.354z"/>
</g>
</svg>
