<?xml version="1.0" encoding="utf-8"?>
<!-- Generator: Adobe Illustrator 16.0.0, SVG Export Plug-In . SVG Version: 6.00 Build 0)  -->
<!DOCTYPE svg PUBLIC "-//W3C//DTD SVG 1.1//EN" "http://www.w3.org/Graphics/SVG/1.1/DTD/svg11.dtd">
<svg version="1.1" id="Your_Icon" xmlns="http://www.w3.org/2000/svg" xmlns:xlink="http://www.w3.org/1999/xlink" x="0px" y="0px"
	 width="100px" height="100px" viewBox="0 0 100 100" enable-background="new 0 0 100 100" xml:space="preserve">
<polygon fill="#034059" points="67,58 67,76 23,76 23,32 41,32 41,25 16,25 16,83 74,83 74,58 "/>
<path fill="#034059" d="M35.758,55.212l4.968,4.967l17.761-17.762c2.742,1.809,6.025,2.861,9.555,2.861
	c9.602,0,17.384-7.782,17.384-17.383s-7.782-17.383-17.384-17.383c-9.6,0-17.382,7.783-17.382,17.383c0,3.53,1.053,6.813,2.86,9.555
	L35.758,55.212z M68.041,40.312c-6.847,0-12.415-5.57-12.415-12.417c0-6.846,5.568-12.417,12.415-12.417
	c6.848,0,12.417,5.57,12.417,12.417C80.458,34.742,74.889,40.312,68.041,40.312z"/>
</svg>
