<?xml version="1.0" encoding="utf-8"?>
<!-- Generator: Adobe Illustrator 16.0.0, SVG Export Plug-In . SVG Version: 6.00 Build 0)  -->
<!DOCTYPE svg PUBLIC "-//W3C//DTD SVG 1.1//EN" "http://www.w3.org/Graphics/SVG/1.1/DTD/svg11.dtd">
<svg version="1.1"
	 id="svg5502" inkscape:version="0.48.4 r9939" xmlns:cc="http://creativecommons.org/ns#" xmlns:svg="http://www.w3.org/2000/svg" xmlns:inkscape="http://www.inkscape.org/namespaces/inkscape" xmlns:dc="http://purl.org/dc/elements/1.1/" xmlns:rdf="http://www.w3.org/1999/02/22-rdf-syntax-ns#" xmlns:sodipodi="http://sodipodi.sourceforge.net/DTD/sodipodi-0.dtd" sodipodi:docname="New document 14"
	 xmlns="http://www.w3.org/2000/svg" xmlns:xlink="http://www.w3.org/1999/xlink" x="0px" y="0px" width="176.326px"
	 height="184.341px" viewBox="0 0 176.326 184.341" enable-background="new 0 0 176.326 184.341" xml:space="preserve">
<title  id="title5535">Save Icon</title>
<sodipodi:namedview  inkscape:cy="113.97175" inkscape:zoom="1.4" id="base" showguides="true" showgrid="false" fit-margin-left="5" borderopacity="1.0" inkscape:cx="74.898762" bordercolor="#666666" fit-margin-top="5" pagecolor="#ffffff" inkscape:pageopacity="0.0" inkscape:window-maximized="1" inkscape:window-height="706" inkscape:window-width="1366" fit-margin-right="5" inkscape:document-units="px" inkscape:window-y="-8" inkscape:window-x="-8" inkscape:guide-bbox="true" inkscape:pageshadow="2" fit-margin-bottom="5" inkscape:current-layer="layer1">
	<sodipodi:guide  id="guide5537" orientation="0,1" position="77.142857,83.928572"></sodipodi:guide>
	<sodipodi:guide  id="guide5539" orientation="1,0" position="65.975588,45.456865"></sodipodi:guide>
</sodipodi:namedview>
<g id="layer1" transform="translate(-42.142834,-40.118541)" inkscape:label="Layer 1" inkscape:groupmode="layer">
	<path id="rect5447-2" inkscape:connector-curvature="0" sodipodi:nodetypes="cccccccccccccccccccccc" fill="#034059" d="
		M47.143,45.226v78.559l23.987,27.249h76.013V75.529l-0.136-30.411l-28.399,0.108H47.143z M72.024,54.49h52.273v11.869H72.024V54.49
		z"/>
</g>
<g>
	<g>
		<g>
			<path fill="#FFFFFF" d="M89.709,44.1l-9.592-9.593c-1.273-1.265-3.516-1.265-4.776,0l-8.685,8.684L33.115,76.723
				c-0.301,0.312-0.542,0.667-0.715,1.062l-7.179,16.771c-0.541,1.271-0.261,2.742,0.714,3.715c0.646,0.644,1.515,0.994,2.393,0.994
				c0.443,0,0.897-0.09,1.332-0.272l16.77-7.188c0.397-0.164,0.753-0.405,1.051-0.715l33.541-33.53l8.685-8.685
				c0.628-0.637,0.984-1.496,0.984-2.383C90.692,45.595,90.336,44.736,89.709,44.1z M44.937,86.734l-14.599,7.144l6.249-14.598
				l29.924-29.913l8.338,7.455L44.937,86.734z M79.148,54.301l-9.232-8.35 M69.896,45.942l0.02,0.009l6.458-6.651l8.814,8.961
				l-6.04,6.04l0.009,0.011"/>
			<path fill="#FFFFFF" d="M69.916,45.951l-0.251,0.251c0.087-0.087,0.155-0.174,0.231-0.261L69.916,45.951z"/>
			<path fill="#FFFFFF" d="M79.157,54.309c-0.088,0.077-0.172,0.155-0.261,0.242l0.252-0.251L79.157,54.309z"/>
		</g>
		<g>
			<path fill="#FFFFFF" d="M69.916,45.951l-0.251,0.251c0.087-0.087,0.155-0.174,0.231-0.261L69.916,45.951z"/>
			<path fill="#FFFFFF" d="M79.157,54.309c-0.088,0.077-0.172,0.155-0.261,0.242l0.252-0.251L79.157,54.309z"/>
		</g>
	</g>
</g>
</svg>
