<?xml version="1.0" encoding="utf-8"?>
<!-- Generator: Adobe Illustrator 16.0.0, SVG Export Plug-In . SVG Version: 6.00 Build 0)  -->
<!DOCTYPE svg PUBLIC "-//W3C//DTD SVG 1.1//EN" "http://www.w3.org/Graphics/SVG/1.1/DTD/svg11.dtd">
<svg version="1.1" id="Livello_1" xmlns="http://www.w3.org/2000/svg" xmlns:xlink="http://www.w3.org/1999/xlink" x="0px" y="0px"
	 width="130px" height="100px" viewBox="0 0 130 100" enable-background="new 0 0 130 100" xml:space="preserve">
<path fill="#034059" d="M42.44,0L14.639,26.465V99h33v-7h-26V31h25V7h36v24h7V0H42.44z M27.426,24l12.213-12.551V24H27.426z"/>
<path fill="#034059" d="M84.604,35.814c-11.842,0.002-21.472,9.308-22.062,21.004c0,0.018,0,0.863,0,2.092h7.753
	c0.018-0.68,0.025-1.366,0.043-2.074c0.176-7.034,6.723-13.216,14.266-13.23c5.326,0.011,10.112,3.119,12.547,7.414h8.392
	C102.646,42.199,94.398,35.816,84.604,35.814L84.604,35.814z"/>
<path fill="#034059" d="M109.771,62.915c-0.156-0.16-0.365-0.257-0.59-0.257H60.027c-0.223,0-0.436,0.097-0.596,0.257
	c-0.152,0.153-0.24,0.376-0.24,0.601v32.721c0,0.229,0.091,0.445,0.246,0.606c0.154,0.155,0.367,0.249,0.59,0.249h49.154
	c0.215,0,0.435-0.094,0.59-0.249c0.155-0.161,0.24-0.379,0.24-0.606V63.516C110.012,63.291,109.927,63.068,109.771,62.915z
	 M77.773,90.296l3.974-12.25c-1.19-0.875-1.958-2.278-1.958-3.86c0-2.664,2.162-4.814,4.814-4.814c2.654,0,4.811,2.15,4.811,4.814
	c0,1.582-0.771,2.985-1.951,3.86l3.973,12.25H77.773z"/>
</svg>
