<?xml version="1.0" encoding="utf-8"?>
<!-- Generator: Adobe Illustrator 16.0.0, SVG Export Plug-In . SVG Version: 6.00 Build 0)  -->
<!DOCTYPE svg PUBLIC "-//W3C//DTD SVG 1.1//EN" "http://www.w3.org/Graphics/SVG/1.1/DTD/svg11.dtd">
<svg version="1.1" id="Layer_1" xmlns="http://www.w3.org/2000/svg" xmlns:xlink="http://www.w3.org/1999/xlink" x="0px" y="0px"
	 width="100px" height="100px" viewBox="0 0 100 100" enable-background="new 0 0 100 100" xml:space="preserve">
<polygon fill="#034059" points="63.967,31.359 63.967,31.36 70.678,38.072 70.68,38.071 79.99,47.384 88.652,38.722 72.627,22.698 
	57.18,17.646 53.717,21.11 "/>
<rect x="55.636" y="34.341" transform="matrix(-0.7071 -0.7071 0.7071 -0.7071 73.6201 113.8099)" fill="#034059" width="9.491" height="14.634"/>
<rect x="29.339" y="53.793" transform="matrix(0.7071 0.7071 -0.7071 0.7071 58.0368 -4.1979)" fill="#034059" width="9.493" height="28.323"/>
<path fill="#034059" d="M64.328,59.488l-23.79-23.792l2.07-7.727l-10.03-10.03l-7.728,2.07l8.101,8.102l-1.6,5.973l-5.973,1.6
	l-8.102-8.102l-2.072,7.729l10.031,10.03l7.729-2.071l23.789,23.792l-2.069,7.729L64.712,84.82l7.729-2.07l-8.103-8.102l1.603-5.974
	l5.971-1.603l8.102,8.105l2.07-7.73L72.057,57.418L64.328,59.488z"/>
</svg>
