<?xml version="1.0" encoding="utf-8"?>
<!-- Generator: Adobe Illustrator 16.0.0, SVG Export Plug-In . SVG Version: 6.00 Build 0)  -->
<!DOCTYPE svg PUBLIC "-//W3C//DTD SVG 1.1//EN" "http://www.w3.org/Graphics/SVG/1.1/DTD/svg11.dtd">
<svg version="1.1" id="Calque_1" xmlns="http://www.w3.org/2000/svg" xmlns:xlink="http://www.w3.org/1999/xlink" x="0px" y="0px"
	 width="100px" height="100px" viewBox="0 0 100 100" enable-background="new 0 0 100 100" xml:space="preserve">
<path fill="#034059" d="M48.787,21.304c0.327,0,0.653,0,0.979,0c17.824-0.392,15.097,21.523,9.304,31.586
	c-1.086,1.887-2.42,3.705-2.203,5.389c0.842,6.572,16.244,4.959,19.589,8.814c2.387,2.75,0.968,6.625,1.714,11.998
	c-19.182-0.164-39.014,0.326-57.787-0.244c0.762-5.272-0.637-9.045,1.714-11.754c3.679-4.24,19.014-2.07,19.589-9.061
	c0.13-1.576-1.098-3.223-2.204-5.143C33.339,42.218,31.328,20.885,48.787,21.304z"/>
</svg>
