<?xml version="1.0" encoding="utf-8"?>
<!-- Generator: Adobe Illustrator 16.0.0, SVG Export Plug-In . SVG Version: 6.00 Build 0)  -->
<!DOCTYPE svg PUBLIC "-//W3C//DTD SVG 1.1//EN" "http://www.w3.org/Graphics/SVG/1.1/DTD/svg11.dtd">
<svg version="1.1" id="Calque_1" xmlns="http://www.w3.org/2000/svg" xmlns:xlink="http://www.w3.org/1999/xlink" x="0px" y="0px"
	 width="100px" height="100px" viewBox="0 0 100 100" enable-background="new 0 0 100 100" xml:space="preserve">
<path fill="#034059" d="M72.751,26.842c0.263,0,0.522,0,0.784,0c14.275-0.314,12.093,17.24,7.451,25.301
	c-0.868,1.512-1.938,2.967-1.764,4.315c0.674,5.265,13.012,3.974,15.69,7.062c1.912,2.201,0.774,5.307,1.372,9.609
	C80.922,72.998,65.036,73.391,50,72.934c0.609-4.223-0.51-7.244,1.374-9.414c2.946-3.396,15.229-1.658,15.69-7.258
	c0.104-1.263-0.881-2.58-1.767-4.119C60.378,43.595,58.768,26.506,72.751,26.842z"/>
<g>
	<path fill="#034059" d="M35.074,37.251c0.327,0,0.653,0,0.979,0c17.823-0.392,15.097,21.523,9.304,31.586
		c-1.086,1.887-2.42,3.705-2.203,5.389c0.842,6.572,16.244,4.959,19.59,8.814c2.387,2.75,0.967,6.528,1.713,11.901H6.721
		c0.762-5.272-0.688-9.192,1.663-11.901c3.679-4.24,19.014-2.07,19.589-9.061c0.13-1.576-1.098-3.223-2.204-5.143
		C19.625,58.166,17.615,36.833,35.074,37.251z"/>
	<path fill="#FCFCFC" d="M35.116,42.08c0.287,0,0.713,0,1,0c15.662-0.345,9.834,20.166,4.625,27.875
		c-0.954,1.658-1.065,4.896-0.875,6.375c1.25,7.063,16.935,5.424,19.875,8.813c2.375,2.875,0.875,3.25,1.33,6.748L10.479,91.83
		c0.67-4.634-0.34-4.577,1.022-6.351c3.233-3.727,18.781-0.566,19.555-10.447c0.114-1.386,0.748-5.077-1.937-8.52
		C23.721,57.135,21.937,42.08,35.116,42.08z"/>
</g>
</svg>
